<svg width="50" height="50" viewBox="0 0 50 50" fill="none" xmlns="http://www.w3.org/2000/svg">
<path d="M5 5C3.35547 5 2 6.35547 2 8V42C2 43.6445 3.35547 45 5 45H45C46.6445 45 48 43.6445 48 42V8C48 6.35547 46.6445 5 45 5H5ZM5 7H45C45.5625 7 46 7.4375 46 8V42C46 42.5625 45.5625 43 45 43H5C4.4375 43 4 42.5625 4 42V8C4 7.4375 4.4375 7 5 7ZM25 16C24.625 16 24.2695 16.0195 23.9062 16.0625C15.7734 16.7188 9.25 24.3438 9.25 24.3438C8.92188 24.7188 8.92188 25.2812 9.25 25.6562C9.25 25.6562 15.7734 33.2812 23.9062 33.9375C24.2695 33.9805 24.625 34 25 34C25.375 34 25.7305 33.9805 26.0938 33.9375C34.2266 33.2812 40.75 25.6562 40.75 25.6562C41.0781 25.2812 41.0781 24.7188 40.75 24.3438C40.75 24.3438 34.2266 16.7188 26.0938 16.0625C25.7305 16.0195 25.375 16 25 16ZM25 18C25.2383 18 25.4805 18.0156 25.7188 18.0312C25.7305 18.0312 25.7383 18.0312 25.75 18.0312C29.2734 18.4023 32 21.375 32 25C32 28.625 29.2734 31.5977 25.75 31.9688C25.5039 31.9961 25.2539 32 25 32C24.7578 32 24.5156 31.9922 24.2812 31.9688C24.2695 31.9688 24.2617 31.9688 24.25 31.9688C20.7266 31.5977 18 28.625 18 25C18 21.375 20.7266 18.4023 24.25 18.0312C24.2617 18.0312 24.2695 18.0312 24.2812 18.0312C24.5156 18.0078 24.7578 18 25 18ZM17.3125 20.375C16.4922 21.7305 16 23.3047 16 25C16 26.6953 16.4922 28.2695 17.3125 29.625C14.2891 27.8477 12.1055 25.6367 11.5 25C12.1055 24.3633 14.2891 22.1523 17.3125 20.375ZM32.6875 20.375C35.7109 22.1523 37.8945 24.3633 38.5 25C37.8945 25.6367 35.7109 27.8477 32.6875 29.625C33.5078 28.2695 34 26.6953 34 25C34 23.3047 33.5078 21.7305 32.6875 20.375ZM25 21C22.8008 21 21 22.8008 21 25C21 27.1992 22.8008 29 25 29C27.1992 29 29 27.1992 29 25C29 22.8008 27.1992 21 25 21ZM25 23C26.1172 23 27 23.8828 27 25C27 26.1172 26.1172 27 25 27C23.8828 27 23 26.1172 23 25C23 23.8828 23.8828 23 25 23Z" fill="#5FCF6C"/>
</svg>
