<svg width="50" height="50" viewBox="0 0 50 50" fill="none" xmlns="http://www.w3.org/2000/svg">
<path d="M26 1C24.3555 1 23 2.35547 23 4V15C23 16.6445 24.3555 18 26 18H28.1992C28.2695 18.2812 28.3203 18.3711 28.3828 18.875C28.4961 19.7734 28.457 20.8516 28.1055 21.5508C27.9492 21.8633 27.9688 22.2305 28.1484 22.5273C28.332 22.8203 28.6523 23 29 23C31.0547 23 32.4922 21.4336 33.4414 20.0742C34.1719 19.0312 34.3984 18.4258 34.582 18H43C44.6445 18 46 16.6445 46 15V4C46 2.35547 44.6445 1 43 1H26ZM26 3H43C43.5664 3 44 3.43359 44 4V15C44 15.5664 43.5664 16 43 16H34C33.5898 16 33.2227 16.25 33.0742 16.6289C33.0742 16.6289 32.6055 17.7852 31.8086 18.9258C31.3984 19.5078 30.918 20.0273 30.4219 20.4062C30.4688 19.7695 30.4336 19.1602 30.3672 18.625C30.2305 17.5234 29.9492 16.6836 29.9492 16.6836C29.8125 16.2734 29.4297 16 29 16H26C25.4336 16 25 15.5664 25 15V4C25 3.43359 25.4336 3 26 3ZM21 4.99219C16.7305 4.99219 13.9609 6.91016 12.8359 9.80859C11.7656 12.5625 12.0547 16.0312 12.9375 19.6914C12.4648 20.1836 12 20.8711 11.9961 21.9961C11.9883 23.3203 12.4414 24.3438 13.043 24.9961C13.3867 25.3672 13.7578 25.4102 14.1211 25.5742C14.1914 26.5781 14.3633 27.5938 14.7266 28.4648C15.0547 29.2578 15.5117 29.8008 15.9961 30.3281C15.9961 31.6055 16.0039 32.5938 15.9961 33.8438C15.6055 34.6836 14.8008 35.3633 13.5781 36.0039C12.3086 36.6758 10.6758 37.2773 9.03906 38.0312C7.39844 38.7852 5.73047 39.707 4.40625 41.1133C3.08203 42.5195 2.14453 44.4375 1.99609 46.9375L1.93359 48.0039H42.0664L42.0039 46.9375C41.8555 44.4375 40.918 42.5195 39.5898 41.1094C38.2617 39.7031 36.5938 38.7852 34.9492 38.0273C33.3047 37.2695 31.6758 36.6719 30.4062 36C29.1875 35.3594 28.3867 34.6797 28.0039 33.8477C27.9922 32.5039 28.0039 31.5117 28.0039 30.25C28.4883 29.7383 28.9531 29.207 29.2695 28.5508C29.6914 27.6758 30.0039 26.8477 30.0039 26C30.0039 25.4453 29.5547 24.9961 29 24.9961C28.4453 24.9961 27.9961 25.4453 27.9961 26C27.9961 26.1523 27.793 26.9766 27.457 27.6797C27.1211 28.3828 26.6094 29.043 26.418 29.1836L25.9961 29.4844V30C25.9961 31.4766 25.9727 32.4961 25.9961 34.1406L26 34.3281L26.0664 34.5C26.6914 36.043 28.0156 37.0156 29.4688 37.7812C30.918 38.543 32.5664 39.1445 34.1094 39.8555C35.6523 40.5625 37.082 41.3828 38.125 42.4883C38.9609 43.375 39.4805 44.543 39.7578 45.9961H4.24219C4.51562 44.543 5.03906 43.375 5.86719 42.4883C6.91016 41.3828 8.33594 40.5664 9.875 39.8594C11.418 39.1484 13.0625 38.5508 14.5156 37.7852C15.9727 37.0195 17.2969 36.0469 17.9297 34.5039L18 34.3281L18.0039 34.1367C18.0234 32.6328 18.0039 31.6055 18.0039 30.125V29.6172L17.5938 29.3164C17.4688 29.2227 16.9336 28.5352 16.582 27.6914C16.2344 26.8516 15.9883 25.8359 16.0039 25.0156L16.0195 24.0781L15.082 24C15.1523 24.0039 14.7773 23.9141 14.5195 23.6328C14.2617 23.3516 14 22.8984 14.0039 22.0039C14.0117 21.1562 14.3984 20.9336 14.5273 20.8555L15.1562 20.4688L14.9727 19.75C14.0273 16.0859 13.8477 12.75 14.707 10.5352C15.5703 8.32031 17.2695 7.00781 21 7.00781C21.5547 7.00781 22.0078 6.55469 22.0078 6C22.0078 5.44531 21.5547 4.99219 21 4.99219ZM29 6V8H36V6H29ZM38 6V8H41V6H38ZM29 11V13H32V11H29ZM34 11V13H41V11H34Z" fill="#5FCF6C"/>
</svg>
