<svg width="50" height="50" viewBox="0 0 50 50" fill="none" xmlns="http://www.w3.org/2000/svg">
<path d="M25 2C12.318 2 2 12.318 2 25C2 37.682 12.318 48 25 48C37.682 48 48 37.682 48 25C48 20.403 46.6396 16.1195 44.3066 12.5215L43.4141 13.4141L42.8438 13.9844C44.8317 17.1914 46 20.957 46 25C46 36.58 36.58 46 25 46C13.42 46 4 36.58 4 25C4 13.42 13.42 4 25 4C29.9133 4 34.4203 5.71744 38 8.55664V10.5859L35.5645 13.0215C32.7441 10.5274 29.0519 9 25 9C16.178 9 9 16.178 9 25C9 33.822 16.178 41 25 41C33.822 41 41 33.822 41 25C41 21.671 39.9755 18.5767 38.2285 16.0137L36.7793 17.4629C38.1773 19.6419 39 22.224 39 25C39 32.72 32.72 39 25 39C17.28 39 11 32.72 11 25C11 17.28 17.28 11 25 11C28.5013 11 31.6951 12.3017 34.1504 14.4355L30.6035 17.9824C29.0649 16.7483 27.1215 16 25 16C20.038 16 16 20.038 16 25C16 29.962 20.038 34 25 34C29.962 34 34 29.962 34 25C34 23.613 33.6753 22.3049 33.1133 21.1309L31.5879 22.6543C31.8499 23.3883 32 24.177 32 25C32 28.86 28.86 32 25 32C21.14 32 18 28.86 18 25C18 21.14 21.14 18 25 18C26.57 18 28.0151 18.526 29.1836 19.4023L25.5156 23.0703C25.3475 23.0245 25.1742 23.0009 25 23C24.4696 23 23.9609 23.2107 23.5858 23.5858C23.2107 23.9609 23 24.4696 23 25C23 25.5304 23.2107 26.0391 23.5858 26.4142C23.9609 26.7893 24.4696 27 25 27C25.5304 27 26.0391 26.7893 26.4142 26.4142C26.7893 26.0391 27 25.5304 27 25C26.9999 24.8252 26.9769 24.6512 26.9316 24.4824L39.4141 12H42L47 7H43V3L39.127 6.87305C35.2249 3.82434 30.3243 2 25 2Z" fill="#5FCF6C"/>
</svg>
